<svg width="70" height="77" viewBox="0 0 70 77" fill="none" xmlns="http://www.w3.org/2000/svg">
<g id="&#240;&#159;&#166;&#134; icon &#34;calendar&#34;">
<path id="Vector" fill-rule="evenodd" clip-rule="evenodd" d="M19.25 0C20.2711 0 21.2503 0.405624 21.9724 1.12764C22.6944 1.84965 23.1 2.82892 23.1 3.85V7.7H46.2V3.85C46.2 2.82892 46.6056 1.84965 47.3276 1.12764C48.0497 0.405624 49.0289 0 50.05 0C51.0711 0 52.0504 0.405624 52.7724 1.12764C53.4944 1.84965 53.9 2.82892 53.9 3.85V7.7H57.75C60.8133 7.7 63.751 8.91687 65.9171 11.0829C68.0831 13.249 69.3 16.1868 69.3 19.25V23.1H0V19.25C0 16.1868 1.21687 13.249 3.38292 11.0829C5.54896 8.91687 8.48675 7.7 11.55 7.7H15.4V3.85C15.4 2.82892 15.8056 1.84965 16.5276 1.12764C17.2497 0.405624 18.2289 0 19.25 0ZM0 30.8V65.45C0 68.5133 1.21687 71.451 3.38292 73.6171C5.54896 75.7831 8.48675 77 11.55 77H57.75C60.8133 77 63.751 75.7831 65.9171 73.6171C68.0831 71.451 69.3 68.5133 69.3 65.45V30.8H0Z" fill="#F36F2C"/>
</g>
</svg>
