<svg width="78" height="78" viewBox="0 0 78 78" fill="none" xmlns="http://www.w3.org/2000/svg">
<g id="&#240;&#159;&#166;&#134; icon &#34;phone&#34;">
<path id="Vector" fill-rule="evenodd" clip-rule="evenodd" d="M4.33333 0C3.18406 0 2.08186 0.456546 1.2692 1.2692C0.456546 2.08186 0 3.18406 0 4.33333C0 13.0997 1.83733 24.8473 6.85967 36.3957C12.9263 50.349 23.738 64.2157 41.6217 71.903C50.5787 75.7597 61.191 78 73.6667 78C74.8159 78 75.9181 77.5435 76.7308 76.7308C77.5435 75.9181 78 74.8159 78 73.6667V56.3333C77.9997 55.3667 77.6763 54.428 77.0811 53.6663C76.4859 52.9047 75.6532 52.3639 74.7153 52.13L57.382 47.7967C56.5842 47.5975 55.7461 47.6294 54.9657 47.8888C54.1854 48.1482 53.4949 48.6242 52.975 49.2613L42.1027 62.5777C29.562 56.3247 21.32 46.3927 16.1417 35.8237L28.8167 24.96C29.4283 24.4365 29.8821 23.753 30.127 22.986C30.3719 22.2191 30.3984 21.3991 30.2033 20.618L25.87 3.28467C25.6361 2.34679 25.0953 1.51406 24.3337 0.918881C23.572 0.323706 22.6333 0.000267033 21.6667 0H4.33333Z" fill="#F36F2C"/>
</g>
</svg>
