<svg width="98" height="79" viewBox="0 0 98 79" fill="none" xmlns="http://www.w3.org/2000/svg">
<g id="&#240;&#159;&#166;&#134; icon &#34;mail&#34;">
<path id="Vector" fill-rule="evenodd" clip-rule="evenodd" d="M14.7 78.4C10.8013 78.4 7.06232 76.8512 4.30553 74.0945C1.54875 71.3377 0 67.5987 0 63.7V14.7C0 10.8013 1.54875 7.06231 4.30553 4.30553C7.06232 1.54875 10.8013 0 14.7 0H83.3C87.1987 0 90.9377 1.54875 93.6945 4.30553C96.4513 7.06231 98 10.8013 98 14.7V63.7C98 67.5987 96.4513 71.3377 93.6945 74.0945C90.9377 76.8512 87.1987 78.4 83.3 78.4H14.7ZM27.5625 20.678C27.0634 20.2518 26.4837 19.9302 25.8579 19.7323C25.232 19.5344 24.5728 19.4643 23.9194 19.5261C23.266 19.5879 22.6316 19.7803 22.0539 20.0919C21.4763 20.4036 20.9672 20.8281 20.5567 21.3403C20.1463 21.8525 19.843 22.442 19.6647 23.0737C19.4865 23.7054 19.437 24.3664 19.5191 25.0176C19.6013 25.6688 19.8134 26.2969 20.143 26.8645C20.4725 27.4321 20.9127 27.9278 21.4375 28.322L39.8125 43.0269C42.4197 45.1143 45.6601 46.2517 49 46.2517C52.3399 46.2517 55.5803 45.1143 58.1875 43.0269L76.5625 28.3269C77.0651 27.9247 77.4835 27.4275 77.7939 26.8636C78.1043 26.2997 78.3006 25.6803 78.3715 25.0405C78.4425 24.4008 78.3868 23.7533 78.2076 23.1351C78.0283 22.5169 77.7291 21.9401 77.3269 21.4375C76.9247 20.9349 76.4275 20.5165 75.8636 20.2061C75.2997 19.8957 74.6803 19.6994 74.0405 19.6285C73.4008 19.5575 72.7533 19.6132 72.1351 19.7924C71.5169 19.9717 70.9401 20.2709 70.4375 20.6731L52.0625 35.3731C51.1934 36.0689 50.1133 36.448 49 36.448C47.8867 36.448 46.8066 36.0689 45.9375 35.3731L27.5625 20.6731V20.678Z" fill="#F36F2C"/>
</g>
</svg>
